<svg xmlns="http://www.w3.org/2000/svg" width="32" height="32" id="real"><path fill="#7065f0" style="line-height:normal;text-indent:0;text-align:start;text-decoration-line:none;text-decoration-style:solid;text-decoration-color:#000;text-transform:none;block-progression:tb;isolation:auto;mix-blend-mode:normal" fill-rule="evenodd" d="M13.328 3.223 3 14h20.656L13.328 3.223zM20 7.5v1.502l2 1.98V7.5h-2zM4.328 15v13h7v-8.5a.5.5 0 0 1 .5-.5h4a.5.5 0 0 1 .5.5V28h2.026a6.474 6.474 0 0 1-1.028-3.5 6.5 6.5 0 0 1 5.002-6.324V15h-18zm19.483 4a5.475 5.475 0 0 0-5.485 5.5c0 3.044 2.434 5.5 5.485 5.5 3.049 0 5.517-2.46 5.517-5.5S26.86 19 23.811 19zm-.477 1h1v1.049c.494.12.95.395 1.268.836.23.318.363.704.36 1.107h-1a.896.896 0 0 0-.169-.517h-.002c-.373-.52-1.286-.626-1.803-.24l-.013.01c-.303.21-.474.65-.371.984l.003.01c.126.442.66.775 1.153.765H23.877c.919-.017 1.853.532 2.129 1.486.242.796-.099 1.628-.748 2.086a2.288 2.288 0 0 1-.924.397V29h-1v-1.049a2.164 2.164 0 0 1-1.281-.834 1.877 1.877 0 0 1-.362-1.105h1c0 .178.063.367.172.517.373.52 1.286.626 1.803.24l.014-.01c.303-.21.473-.65.37-.984l-.003-.01c-.126-.442-.658-.775-1.15-.765h-.12c-.919.017-1.853-.532-2.129-1.486-.242-.796.099-1.628.748-2.086a2.29 2.29 0 0 1 .938-.403V20z" color="#000" font-family="sans-serif" font-weight="400" overflow="visible"></path></svg>